<svg xmlns="http://www.w3.org/2000/svg" width="40" height="43" viewBox="0 0 40 43" fill="none">
<path fill-rule="evenodd" clip-rule="evenodd" d="M13.5489 40.1274C9.82492 39.0757 5.92609 38.5452 2.14397 38.0592C1.32936 37.9573 0.573044 38.5259 0.514858 39.3269C0.398485 40.1286 0.980691 40.8617 1.73712 40.9636C5.40286 41.4314 9.18465 41.9321 12.734 42.9445C13.4904 43.1641 14.3054 42.7121 14.5381 41.9345C14.7709 41.1574 14.3053 40.3476 13.5489 40.1274Z" fill="#262626"/>
<path fill-rule="evenodd" clip-rule="evenodd" d="M24.8365 25.2172C18.8433 19.0623 12.0937 13.6997 6.21685 7.37974C5.69318 6.78949 4.76219 6.75787 4.18033 7.30888C3.59846 7.86048 3.5405 8.78802 4.12237 9.37826C9.9992 15.7164 16.7488 21.0966 22.742 27.2696C23.3239 27.8458 24.2547 27.854 24.8365 27.2872C25.3602 26.7209 25.4184 25.7934 24.8365 25.2172Z" fill="#262626"/>
<path fill-rule="evenodd" clip-rule="evenodd" d="M36.0672 1.54341C36.2417 5.06616 36.4159 8.58891 36.5905 12.1123C36.5905 12.9192 37.2891 13.5422 38.1037 13.503C38.9183 13.4631 39.4998 12.7763 39.4998 11.9688C39.3253 8.44018 39.151 4.91216 38.9765 1.38413C38.9183 0.577224 38.2199 -0.0417174 37.4053 0.00219986C36.6489 0.0461172 36.009 0.737085 36.0672 1.54341Z" fill="#262626"/>
</svg>